<svg xmlns="http://www.w3.org/2000/svg" viewBox="0 0 1024 1024">
  <defs>
    <linearGradient id="plate" x1="144" y1="96" x2="880" y2="928" gradientUnits="userSpaceOnUse">
      <stop offset="0" stop-color="#fffdf8"/>
      <stop offset="1" stop-color="#e7ece3"/>
    </linearGradient>
    <linearGradient id="phone" x1="326" y1="112" x2="694" y2="904" gradientUnits="userSpaceOnUse">
      <stop offset="0" stop-color="#26352f"/>
      <stop offset="1" stop-color="#121a17"/>
    </linearGradient>
    <linearGradient id="screen" x1="378" y1="190" x2="646" y2="760" gradientUnits="userSpaceOnUse">
      <stop offset="0" stop-color="#245d7a"/>
      <stop offset="1" stop-color="#52634a"/>
    </linearGradient>
    <filter id="shadow" x="-20%" y="-20%" width="140%" height="150%">
      <feDropShadow dx="0" dy="32" stdDeviation="32" flood-color="#202522" flood-opacity="0.28"/>
    </filter>
  </defs>
  <rect x="96" y="96" width="832" height="832" rx="190" fill="#fbfaf6"/>
  <rect x="96" y="96" width="832" height="832" rx="190" fill="url(#plate)" opacity="0.92"/>
  <path d="M192 702c84 86 193 129 326 129 128 0 234-40 318-121" fill="none" stroke="#a5641a" stroke-width="30" stroke-linecap="round" opacity="0.34"/>
  <g filter="url(#shadow)">
    <rect x="318" y="126" width="388" height="772" rx="80" fill="#17211d"/>
    <rect x="370" y="196" width="284" height="560" rx="40" fill="#245d7a"/>
    <path d="M370 586 654 320v436H370Z" fill="#52634a" opacity="0.72"/>
    <rect x="448" y="158" width="128" height="18" rx="9" fill="#fbfaf6" opacity="0.78"/>
    <circle cx="512" cy="820" r="30" fill="#fbfaf6" opacity="0.88"/>
  </g>
  <g fill="none" stroke="#fbfaf6" stroke-width="34" stroke-linecap="round" stroke-linejoin="round">
    <path d="M284 470h292"/>
    <path d="M486 382l90 88-90 88"/>
  </g>
  <g fill="none" stroke="#fbfaf6" stroke-width="34" stroke-linecap="round" stroke-linejoin="round" opacity="0.94">
    <path d="M740 554H448"/>
    <path d="M538 466l-90 88 90 88"/>
  </g>
  <path d="M400 682h224" stroke="#fbfaf6" stroke-width="22" stroke-linecap="round" opacity="0.68"/>
</svg>
